<svg width="18" height="18" viewBox="0 0 18 18" fill="none" xmlns="http://www.w3.org/2000/svg">
<path d="M1.49048 0.257658C1.14951 -0.085886 0.596695 -0.085886 0.255726 0.257658C-0.0852421 0.601202 -0.0852421 1.1582 0.255726 1.50174L7.76524 9.06798L0.390672 16.4983C0.0497028 16.8418 0.0497039 17.3988 0.390672 17.7423C0.731641 18.0859 1.28446 18.0859 1.62543 17.7423L9 10.3121L16.3746 17.7423C16.7155 18.0859 17.2684 18.0859 17.6093 17.7423C17.9503 17.3988 17.9503 16.8418 17.6093 16.4983L10.2348 9.06798L17.7443 1.50174C18.0852 1.1582 18.0852 0.601202 17.7443 0.257658C17.4033 -0.085886 16.8505 -0.085886 16.5095 0.257658L9 7.8239L1.49048 0.257658Z" fill="#626F84"/>
</svg>
